%TF.GenerationSoftware,Altium Limited,Altium Designer,22.10.1 (41)*%
G04 Layer_Physical_Order=2*
G04 Layer_Color=36540*
%FSLAX45Y45*%
%MOMM*%
%TF.SameCoordinates,31040185-1CDC-4878-9C2F-C35C27A90F04*%
%TF.FilePolarity,Positive*%
%TF.FileFunction,Copper,L2,Inr,Signal*%
%TF.Part,Single*%
G01*
G75*
%TA.AperFunction,ViaPad*%
%ADD26C,1.52400*%
%TA.AperFunction,ComponentPad*%
%ADD27C,1.60000*%
%ADD28R,1.60000X1.60000*%
%TA.AperFunction,ViaPad*%
%ADD29C,0.70000*%
G36*
X2132594Y2892300D02*
X2118976Y2878682D01*
X2103178Y2851318D01*
X2095000Y2820798D01*
Y2789202D01*
X2103178Y2758682D01*
X2118976Y2731318D01*
X2141318Y2708976D01*
X2168681Y2693178D01*
X2199202Y2685000D01*
X2230798D01*
X2261318Y2693178D01*
X2288682Y2708976D01*
X2298267Y2718561D01*
X2310000Y2713701D01*
Y281299D01*
X2298267Y276439D01*
X2288682Y286024D01*
X2261318Y301822D01*
X2230798Y310000D01*
X2199202D01*
X2168681Y301822D01*
X2141318Y286024D01*
X2118976Y263682D01*
X2103178Y236318D01*
X2095000Y205798D01*
Y174202D01*
X2103178Y143681D01*
X2118976Y116318D01*
X2132594Y102700D01*
X2127333Y90000D01*
X1830000D01*
Y310000D01*
X95000D01*
Y2713700D01*
X106733Y2718561D01*
X116318Y2708976D01*
X143681Y2693178D01*
X174202Y2685000D01*
X205798D01*
X236318Y2693178D01*
X263682Y2708976D01*
X286024Y2731318D01*
X301822Y2758682D01*
X310000Y2789202D01*
Y2820798D01*
X301822Y2851318D01*
X286024Y2878682D01*
X272406Y2892300D01*
X277666Y2905000D01*
X2127334D01*
X2132594Y2892300D01*
D02*
G37*
%LPC*%
G36*
X525940Y2810000D02*
X504060D01*
X483845Y2801627D01*
X468373Y2786155D01*
X460000Y2765940D01*
Y2744060D01*
X468373Y2723845D01*
X483845Y2708374D01*
X504060Y2700000D01*
X525940D01*
X546155Y2708374D01*
X561627Y2723845D01*
X570000Y2744060D01*
Y2765940D01*
X561627Y2786155D01*
X546155Y2801627D01*
X525940Y2810000D01*
D02*
G37*
G36*
X1210940Y2775000D02*
X1189060D01*
X1168845Y2766626D01*
X1153373Y2751155D01*
X1145000Y2730940D01*
Y2709060D01*
X1153373Y2688845D01*
X1168845Y2673373D01*
X1189060Y2665000D01*
X1210940D01*
X1231155Y2673373D01*
X1246626Y2688845D01*
X1255000Y2709060D01*
Y2730940D01*
X1246626Y2751155D01*
X1231155Y2766626D01*
X1210940Y2775000D01*
D02*
G37*
G36*
X1425940Y1980000D02*
X1404060D01*
X1383845Y1971626D01*
X1368373Y1956155D01*
X1360000Y1935940D01*
Y1914060D01*
X1368373Y1893845D01*
X1383845Y1878373D01*
X1404060Y1870000D01*
X1425940D01*
X1446155Y1878373D01*
X1461626Y1893845D01*
X1470000Y1914060D01*
Y1935940D01*
X1461626Y1956155D01*
X1446155Y1971626D01*
X1425940Y1980000D01*
D02*
G37*
G36*
X1835940Y1920000D02*
X1814060D01*
X1793845Y1911627D01*
X1778373Y1896155D01*
X1770000Y1875940D01*
Y1854060D01*
X1778373Y1833845D01*
X1793845Y1818374D01*
X1814060Y1810000D01*
X1835940D01*
X1856155Y1818374D01*
X1871626Y1833845D01*
X1880000Y1854060D01*
Y1875940D01*
X1871626Y1896155D01*
X1856155Y1911627D01*
X1835940Y1920000D01*
D02*
G37*
G36*
X780940Y1900000D02*
X759060D01*
X738845Y1891627D01*
X723373Y1876155D01*
X715000Y1855940D01*
Y1834060D01*
X723373Y1813845D01*
X738845Y1798374D01*
X759060Y1790000D01*
X780940D01*
X801155Y1798374D01*
X816627Y1813845D01*
X825000Y1834060D01*
Y1855940D01*
X816627Y1876155D01*
X801155Y1891627D01*
X780940Y1900000D01*
D02*
G37*
G36*
X605940Y1895000D02*
X584060D01*
X563845Y1886626D01*
X548374Y1871155D01*
X540000Y1850940D01*
Y1829060D01*
X548374Y1808845D01*
X563845Y1793373D01*
X584060Y1785000D01*
X605940D01*
X626155Y1793373D01*
X641627Y1808845D01*
X650000Y1829060D01*
Y1850940D01*
X641627Y1871155D01*
X626155Y1886626D01*
X605940Y1895000D01*
D02*
G37*
G36*
X725940Y1495000D02*
X704060D01*
X683845Y1486626D01*
X668374Y1471155D01*
X660000Y1450940D01*
Y1429060D01*
X668374Y1408845D01*
X683845Y1393373D01*
X704060Y1385000D01*
X725940D01*
X746155Y1393373D01*
X761627Y1408845D01*
X770000Y1429060D01*
Y1450940D01*
X761627Y1471155D01*
X746155Y1486626D01*
X725940Y1495000D01*
D02*
G37*
G36*
X895940Y1110000D02*
X874060D01*
X853845Y1101626D01*
X838373Y1086155D01*
X830000Y1065940D01*
Y1044060D01*
X838373Y1023845D01*
X853845Y1008373D01*
X874060Y1000000D01*
X895940D01*
X916155Y1008373D01*
X931627Y1023845D01*
X940000Y1044060D01*
Y1065940D01*
X931627Y1086155D01*
X916155Y1101626D01*
X895940Y1110000D01*
D02*
G37*
G36*
X1070940Y725000D02*
X1049060D01*
X1028845Y716626D01*
X1013373Y701155D01*
X1005000Y680940D01*
Y659060D01*
X1013373Y638845D01*
X1028845Y623373D01*
X1049060Y615000D01*
X1070940D01*
X1091155Y623373D01*
X1106626Y638845D01*
X1115000Y659060D01*
Y680940D01*
X1106626Y701155D01*
X1091155Y716626D01*
X1070940Y725000D01*
D02*
G37*
G36*
X1725940Y690000D02*
X1704060D01*
X1683845Y681627D01*
X1668374Y666155D01*
X1660000Y645940D01*
Y624060D01*
X1668374Y603845D01*
X1683845Y588373D01*
X1704060Y580000D01*
X1725940D01*
X1746155Y588373D01*
X1761627Y603845D01*
X1770000Y624060D01*
Y645940D01*
X1761627Y666155D01*
X1746155Y681627D01*
X1725940Y690000D01*
D02*
G37*
G36*
X1840940Y600000D02*
X1819060D01*
X1798845Y591626D01*
X1783373Y576155D01*
X1775000Y555940D01*
Y534060D01*
X1783373Y513845D01*
X1798845Y498373D01*
X1819060Y490000D01*
X1840940D01*
X1861155Y498373D01*
X1876626Y513845D01*
X1885000Y534060D01*
Y555940D01*
X1876626Y576155D01*
X1861155Y591626D01*
X1840940Y600000D01*
D02*
G37*
%LPD*%
D26*
X2215000Y190000D02*
D03*
Y2805000D02*
D03*
X190000D02*
D03*
Y190000D02*
D03*
D27*
X946000Y175000D02*
D03*
X1454000D02*
D03*
X1708000D02*
D03*
X1200000D02*
D03*
X692000D02*
D03*
X438000D02*
D03*
D28*
X1962000D02*
D03*
D29*
X885000Y1055000D02*
D03*
X1010591Y1054118D02*
D03*
X1715000Y635000D02*
D03*
X1830000Y545000D02*
D03*
X1715000Y485000D02*
D03*
X2155000Y835000D02*
D03*
X715000Y1440000D02*
D03*
X1060000Y670000D02*
D03*
X930000Y2425000D02*
D03*
X515000Y2755000D02*
D03*
X595000Y1840000D02*
D03*
X770000Y1845000D02*
D03*
X275000Y1985000D02*
D03*
X2250000Y2604999D02*
D03*
Y2475624D02*
D03*
Y2346249D02*
D03*
Y2216874D02*
D03*
Y2087500D02*
D03*
X2250984Y1958125D02*
D03*
Y1828750D02*
D03*
Y1699375D02*
D03*
Y1570000D02*
D03*
X160000Y2604999D02*
D03*
Y2475624D02*
D03*
Y2346249D02*
D03*
Y2216874D02*
D03*
Y2087500D02*
D03*
X160984Y1958125D02*
D03*
Y1828750D02*
D03*
Y1699375D02*
D03*
X160000Y1570000D02*
D03*
X1700000Y2755000D02*
D03*
X1200000Y2720000D02*
D03*
X1415000Y1925000D02*
D03*
X1825000Y1865000D02*
D03*
%TF.MD5,67207dbbf6ee021d2fbb1a3e723d6515*%
M02*
