%TF.GenerationSoftware,Altium Limited,Altium Designer,22.10.1 (41)*%
G04 Layer_Physical_Order=4*
G04 Layer_Color=6736896*
%FSLAX45Y45*%
%MOMM*%
%TF.SameCoordinates,31040185-1CDC-4878-9C2F-C35C27A90F04*%
%TF.FilePolarity,Positive*%
%TF.FileFunction,Copper,L4,Inr,Signal*%
%TF.Part,Single*%
G01*
G75*
%TA.AperFunction,ViaPad*%
%ADD26C,1.52400*%
%TA.AperFunction,ComponentPad*%
%ADD27C,1.60000*%
%ADD28R,1.60000X1.60000*%
%TA.AperFunction,ViaPad*%
%ADD29C,0.70000*%
G36*
X2132594Y2892300D02*
X2118976Y2878682D01*
X2103178Y2851318D01*
X2095000Y2820798D01*
Y2789202D01*
X2103178Y2758682D01*
X2118976Y2731318D01*
X2141318Y2708976D01*
X2168681Y2693178D01*
X2199202Y2685000D01*
X2230798D01*
X2261318Y2693178D01*
X2288682Y2708976D01*
X2298267Y2718561D01*
X2310000Y2713701D01*
Y2637055D01*
X2297300Y2634529D01*
X2296627Y2636154D01*
X2281155Y2651626D01*
X2260940Y2659999D01*
X2239060D01*
X2218845Y2651626D01*
X2203374Y2636154D01*
X2195000Y2615939D01*
Y2594059D01*
X2203374Y2573844D01*
X2218845Y2558373D01*
X2239060Y2549999D01*
X2260940D01*
X2281155Y2558373D01*
X2296627Y2573844D01*
X2297300Y2575470D01*
X2310000Y2572944D01*
Y2507680D01*
X2297300Y2505154D01*
X2296627Y2506779D01*
X2281155Y2522251D01*
X2260940Y2530624D01*
X2239060D01*
X2218845Y2522251D01*
X2203374Y2506779D01*
X2195000Y2486564D01*
Y2464684D01*
X2203374Y2444469D01*
X2218845Y2428998D01*
X2239060Y2420624D01*
X2260940D01*
X2281155Y2428998D01*
X2296627Y2444469D01*
X2297300Y2446095D01*
X2310000Y2443569D01*
Y2378305D01*
X2297300Y2375779D01*
X2296627Y2377404D01*
X2281155Y2392876D01*
X2260940Y2401249D01*
X2239060D01*
X2218845Y2392876D01*
X2203374Y2377404D01*
X2195000Y2357189D01*
Y2335309D01*
X2203374Y2315094D01*
X2218845Y2299623D01*
X2239060Y2291249D01*
X2260940D01*
X2281155Y2299623D01*
X2296627Y2315094D01*
X2297300Y2316720D01*
X2310000Y2314194D01*
Y2248930D01*
X2297300Y2246404D01*
X2296627Y2248029D01*
X2281155Y2263501D01*
X2260940Y2271874D01*
X2239060D01*
X2218845Y2263501D01*
X2203374Y2248029D01*
X2195000Y2227814D01*
Y2205934D01*
X2203374Y2185720D01*
X2218845Y2170248D01*
X2239060Y2161875D01*
X2260940D01*
X2281155Y2170248D01*
X2296627Y2185720D01*
X2297300Y2187345D01*
X2310000Y2184819D01*
Y2119555D01*
X2297300Y2117029D01*
X2296627Y2118654D01*
X2281155Y2134126D01*
X2260940Y2142499D01*
X2239060D01*
X2218845Y2134126D01*
X2203374Y2118654D01*
X2195000Y2098440D01*
Y2076559D01*
X2203374Y2056345D01*
X2218845Y2040873D01*
X2239060Y2032500D01*
X2260940D01*
X2281155Y2040873D01*
X2296627Y2056345D01*
X2297300Y2057970D01*
X2310000Y2055444D01*
Y1992556D01*
X2299009Y1989649D01*
X2297300Y1989590D01*
X2282139Y2004751D01*
X2261924Y2013124D01*
X2240044D01*
X2219829Y2004751D01*
X2204358Y1989279D01*
X2195984Y1969065D01*
Y1947185D01*
X2204358Y1926970D01*
X2219829Y1911498D01*
X2240044Y1903125D01*
X2261924D01*
X2282139Y1911498D01*
X2297300Y1926659D01*
X2299009Y1926600D01*
X2310000Y1923693D01*
Y1863181D01*
X2299009Y1860274D01*
X2297300Y1860215D01*
X2282139Y1875376D01*
X2261924Y1883750D01*
X2240044D01*
X2219829Y1875376D01*
X2204358Y1859905D01*
X2195984Y1839690D01*
Y1817810D01*
X2204358Y1797595D01*
X2219829Y1782123D01*
X2240044Y1773750D01*
X2261924D01*
X2282139Y1782123D01*
X2297300Y1797284D01*
X2299009Y1797225D01*
X2310000Y1794318D01*
Y1733806D01*
X2299009Y1730900D01*
X2297300Y1730840D01*
X2282139Y1746001D01*
X2261924Y1754375D01*
X2240044D01*
X2219829Y1746001D01*
X2204358Y1730530D01*
X2195984Y1710315D01*
Y1688435D01*
X2204358Y1668220D01*
X2219829Y1652748D01*
X2240044Y1644375D01*
X2261924D01*
X2282139Y1652748D01*
X2297300Y1667909D01*
X2299009Y1667850D01*
X2310000Y1664944D01*
Y1604431D01*
X2299009Y1601525D01*
X2297300Y1601465D01*
X2282139Y1616626D01*
X2261924Y1625000D01*
X2240044D01*
X2219829Y1616626D01*
X2204358Y1601155D01*
X2195984Y1580940D01*
Y1559060D01*
X2204358Y1538845D01*
X2219829Y1523373D01*
X2240044Y1515000D01*
X2261924D01*
X2282139Y1523373D01*
X2297300Y1538534D01*
X2299009Y1538475D01*
X2310000Y1535569D01*
Y310000D01*
X95000D01*
Y1550015D01*
X107700Y1552541D01*
X113373Y1538845D01*
X128845Y1523373D01*
X149060Y1515000D01*
X170940D01*
X191155Y1523373D01*
X206626Y1538845D01*
X215000Y1559060D01*
Y1580940D01*
X206626Y1601155D01*
X191155Y1616626D01*
X170940Y1625000D01*
X149060D01*
X128845Y1616626D01*
X113373Y1601155D01*
X107700Y1587458D01*
X95000Y1589985D01*
Y1681765D01*
X107700Y1684292D01*
X114357Y1668220D01*
X129829Y1652748D01*
X150044Y1644375D01*
X171924D01*
X192139Y1652748D01*
X207610Y1668220D01*
X215984Y1688435D01*
Y1710315D01*
X207610Y1730530D01*
X192139Y1746001D01*
X171924Y1754375D01*
X150044D01*
X129829Y1746001D01*
X114357Y1730530D01*
X107700Y1714458D01*
X95000Y1716984D01*
Y1811140D01*
X107700Y1813667D01*
X114357Y1797595D01*
X129829Y1782123D01*
X150044Y1773750D01*
X171924D01*
X192139Y1782123D01*
X207610Y1797595D01*
X215984Y1817810D01*
Y1839690D01*
X207610Y1859905D01*
X192139Y1875376D01*
X171924Y1883750D01*
X150044D01*
X129829Y1875376D01*
X114357Y1859905D01*
X107700Y1843833D01*
X95000Y1846359D01*
Y1940515D01*
X107700Y1943042D01*
X114357Y1926970D01*
X129829Y1911498D01*
X150044Y1903125D01*
X171924D01*
X192139Y1911498D01*
X207610Y1926970D01*
X215984Y1947185D01*
Y1950570D01*
X226976Y1953476D01*
X228684Y1953535D01*
X243845Y1938374D01*
X264060Y1930000D01*
X285940D01*
X306155Y1938374D01*
X321626Y1953845D01*
X330000Y1974060D01*
Y1995940D01*
X321626Y2016155D01*
X306155Y2031627D01*
X285940Y2040000D01*
X264060D01*
X243845Y2031627D01*
X228373Y2016155D01*
X220000Y1995940D01*
Y1992555D01*
X209007Y1989649D01*
X207300Y1989590D01*
X192139Y2004751D01*
X171924Y2013124D01*
X150044D01*
X129829Y2004751D01*
X114357Y1989279D01*
X107700Y1973208D01*
X95000Y1975734D01*
Y2067515D01*
X107700Y2070041D01*
X113373Y2056345D01*
X128845Y2040873D01*
X149060Y2032500D01*
X170940D01*
X191155Y2040873D01*
X206626Y2056345D01*
X215000Y2076559D01*
Y2098440D01*
X206626Y2118654D01*
X191155Y2134126D01*
X170940Y2142499D01*
X149060D01*
X128845Y2134126D01*
X113373Y2118654D01*
X107700Y2104958D01*
X95000Y2107484D01*
Y2196890D01*
X107700Y2199416D01*
X113373Y2185720D01*
X128845Y2170248D01*
X149060Y2161875D01*
X170940D01*
X191155Y2170248D01*
X206626Y2185720D01*
X215000Y2205934D01*
Y2227814D01*
X206626Y2248029D01*
X191155Y2263501D01*
X170940Y2271874D01*
X149060D01*
X128845Y2263501D01*
X113373Y2248029D01*
X107700Y2234333D01*
X95000Y2236859D01*
Y2326265D01*
X107700Y2328791D01*
X113373Y2315094D01*
X128845Y2299623D01*
X149060Y2291249D01*
X170940D01*
X191155Y2299623D01*
X206626Y2315094D01*
X215000Y2335309D01*
Y2357189D01*
X206626Y2377404D01*
X191155Y2392876D01*
X170940Y2401249D01*
X149060D01*
X128845Y2392876D01*
X113373Y2377404D01*
X107700Y2363708D01*
X95000Y2366234D01*
Y2455639D01*
X107700Y2458166D01*
X113373Y2444469D01*
X128845Y2428998D01*
X149060Y2420624D01*
X170940D01*
X191155Y2428998D01*
X206626Y2444469D01*
X215000Y2464684D01*
Y2486564D01*
X206626Y2506779D01*
X191155Y2522251D01*
X170940Y2530624D01*
X149060D01*
X128845Y2522251D01*
X113373Y2506779D01*
X107700Y2493083D01*
X95000Y2495609D01*
Y2585014D01*
X107700Y2587541D01*
X113373Y2573844D01*
X128845Y2558373D01*
X149060Y2549999D01*
X170940D01*
X191155Y2558373D01*
X206626Y2573844D01*
X215000Y2594059D01*
Y2615939D01*
X206626Y2636154D01*
X191155Y2651626D01*
X170940Y2659999D01*
X149060D01*
X128845Y2651626D01*
X113373Y2636154D01*
X107700Y2622458D01*
X95000Y2624984D01*
Y2713700D01*
X106733Y2718561D01*
X116318Y2708976D01*
X143681Y2693178D01*
X174202Y2685000D01*
X205798D01*
X236318Y2693178D01*
X263682Y2708976D01*
X286024Y2731318D01*
X301822Y2758682D01*
X310000Y2789202D01*
Y2820798D01*
X301822Y2851318D01*
X286024Y2878682D01*
X272406Y2892300D01*
X277666Y2905000D01*
X2127334D01*
X2132594Y2892300D01*
D02*
G37*
%LPC*%
G36*
X1710940Y2810000D02*
X1689060D01*
X1668845Y2801627D01*
X1653373Y2786155D01*
X1645000Y2765940D01*
Y2744060D01*
X1653373Y2723845D01*
X1668845Y2708374D01*
X1689060Y2700000D01*
X1710940D01*
X1731155Y2708374D01*
X1746626Y2723845D01*
X1755000Y2744060D01*
Y2765940D01*
X1746626Y2786155D01*
X1731155Y2801627D01*
X1710940Y2810000D01*
D02*
G37*
G36*
X525940D02*
X504060D01*
X483845Y2801627D01*
X468373Y2786155D01*
X460000Y2765940D01*
Y2744060D01*
X468373Y2723845D01*
X483845Y2708374D01*
X504060Y2700000D01*
X525940D01*
X546155Y2708374D01*
X561627Y2723845D01*
X570000Y2744060D01*
Y2765940D01*
X561627Y2786155D01*
X546155Y2801627D01*
X525940Y2810000D01*
D02*
G37*
G36*
X940940Y2480000D02*
X919060D01*
X898845Y2471627D01*
X883373Y2456155D01*
X875000Y2435940D01*
Y2414060D01*
X883373Y2393845D01*
X898845Y2378373D01*
X919060Y2370000D01*
X940940D01*
X961155Y2378373D01*
X976626Y2393845D01*
X985000Y2414060D01*
Y2435940D01*
X976626Y2456155D01*
X961155Y2471627D01*
X940940Y2480000D01*
D02*
G37*
G36*
X1835940Y1920000D02*
X1814060D01*
X1793845Y1911627D01*
X1778373Y1896155D01*
X1770000Y1875940D01*
Y1854060D01*
X1778373Y1833845D01*
X1793845Y1818374D01*
X1814060Y1810000D01*
X1835940D01*
X1856155Y1818374D01*
X1871626Y1833845D01*
X1880000Y1854060D01*
Y1875940D01*
X1871626Y1896155D01*
X1856155Y1911627D01*
X1835940Y1920000D01*
D02*
G37*
G36*
X605940Y1895000D02*
X584060D01*
X563845Y1886626D01*
X548374Y1871155D01*
X540000Y1850940D01*
Y1829060D01*
X548374Y1808845D01*
X563845Y1793373D01*
X584060Y1785000D01*
X605940D01*
X626155Y1793373D01*
X641627Y1808845D01*
X650000Y1829060D01*
Y1850940D01*
X641627Y1871155D01*
X626155Y1886626D01*
X605940Y1895000D01*
D02*
G37*
G36*
X725940Y1495000D02*
X704060D01*
X683845Y1486626D01*
X668374Y1471155D01*
X660000Y1450940D01*
Y1429060D01*
X668374Y1408845D01*
X683845Y1393373D01*
X704060Y1385000D01*
X725940D01*
X746155Y1393373D01*
X761627Y1408845D01*
X770000Y1429060D01*
Y1450940D01*
X761627Y1471155D01*
X746155Y1486626D01*
X725940Y1495000D01*
D02*
G37*
G36*
X1021531Y1109117D02*
X999651D01*
X979436Y1100744D01*
X963964Y1085272D01*
X955591Y1065058D01*
Y1043177D01*
X963964Y1022963D01*
X979436Y1007491D01*
X999651Y999118D01*
X1021531D01*
X1041746Y1007491D01*
X1057217Y1022963D01*
X1065591Y1043177D01*
Y1065058D01*
X1057217Y1085272D01*
X1041746Y1100744D01*
X1021531Y1109117D01*
D02*
G37*
G36*
X2165940Y890000D02*
X2144060D01*
X2123845Y881627D01*
X2108373Y866155D01*
X2100000Y845940D01*
Y824060D01*
X2108373Y803845D01*
X2123845Y788374D01*
X2144060Y780000D01*
X2165940D01*
X2186155Y788374D01*
X2201627Y803845D01*
X2210000Y824060D01*
Y845940D01*
X2201627Y866155D01*
X2186155Y881627D01*
X2165940Y890000D01*
D02*
G37*
G36*
X1070940Y725000D02*
X1049060D01*
X1028845Y716626D01*
X1013373Y701155D01*
X1005000Y680940D01*
Y659060D01*
X1013373Y638845D01*
X1028845Y623373D01*
X1049060Y615000D01*
X1070940D01*
X1091155Y623373D01*
X1106626Y638845D01*
X1115000Y659060D01*
Y680940D01*
X1106626Y701155D01*
X1091155Y716626D01*
X1070940Y725000D01*
D02*
G37*
G36*
X1725940Y690000D02*
X1704060D01*
X1683845Y681627D01*
X1668374Y666155D01*
X1660000Y645940D01*
Y624060D01*
X1668374Y603845D01*
X1683845Y588373D01*
X1704060Y580000D01*
X1725940D01*
X1746155Y588373D01*
X1761627Y603845D01*
X1770000Y624060D01*
Y645940D01*
X1761627Y666155D01*
X1746155Y681627D01*
X1725940Y690000D01*
D02*
G37*
G36*
Y540000D02*
X1704060D01*
X1683845Y531627D01*
X1668374Y516155D01*
X1660000Y495940D01*
Y474060D01*
X1668374Y453845D01*
X1683845Y438374D01*
X1704060Y430000D01*
X1725940D01*
X1746155Y438374D01*
X1761627Y453845D01*
X1770000Y474060D01*
Y495940D01*
X1761627Y516155D01*
X1746155Y531627D01*
X1725940Y540000D01*
D02*
G37*
%LPD*%
D26*
X2215000Y190000D02*
D03*
Y2805000D02*
D03*
X190000D02*
D03*
Y190000D02*
D03*
D27*
X946000Y175000D02*
D03*
X1454000D02*
D03*
X1708000D02*
D03*
X1200000D02*
D03*
X692000D02*
D03*
X438000D02*
D03*
D28*
X1962000D02*
D03*
D29*
X885000Y1055000D02*
D03*
X1010591Y1054118D02*
D03*
X1715000Y635000D02*
D03*
X1830000Y545000D02*
D03*
X1715000Y485000D02*
D03*
X2155000Y835000D02*
D03*
X715000Y1440000D02*
D03*
X1060000Y670000D02*
D03*
X930000Y2425000D02*
D03*
X515000Y2755000D02*
D03*
X595000Y1840000D02*
D03*
X770000Y1845000D02*
D03*
X275000Y1985000D02*
D03*
X2250000Y2604999D02*
D03*
Y2475624D02*
D03*
Y2346249D02*
D03*
Y2216874D02*
D03*
Y2087500D02*
D03*
X2250984Y1958125D02*
D03*
Y1828750D02*
D03*
Y1699375D02*
D03*
Y1570000D02*
D03*
X160000Y2604999D02*
D03*
Y2475624D02*
D03*
Y2346249D02*
D03*
Y2216874D02*
D03*
Y2087500D02*
D03*
X160984Y1958125D02*
D03*
Y1828750D02*
D03*
Y1699375D02*
D03*
X160000Y1570000D02*
D03*
X1700000Y2755000D02*
D03*
X1200000Y2720000D02*
D03*
X1415000Y1925000D02*
D03*
X1825000Y1865000D02*
D03*
%TF.MD5,003e5a122b73698fe7f43ce2dcf414ca*%
M02*
