%TF.GenerationSoftware,Altium Limited,Altium Designer,22.10.1 (41)*%
G04 Layer_Color=8388736*
%FSLAX45Y45*%
%MOMM*%
%TF.SameCoordinates,31040185-1CDC-4878-9C2F-C35C27A90F04*%
%TF.FilePolarity,Negative*%
%TF.FileFunction,Soldermask,Top*%
%TF.Part,Single*%
G01*
G75*
%TA.AperFunction,SMDPad,CuDef*%
%ADD35R,1.00320X1.20320*%
%ADD36O,0.75320X1.45320*%
%ADD39R,1.20320X1.00320*%
%TA.AperFunction,ViaPad*%
%ADD40C,1.72720*%
%TA.AperFunction,ComponentPad*%
%ADD41C,1.80320*%
%ADD42R,1.80320X1.80320*%
%TA.AperFunction,ViaPad*%
%ADD43C,0.90320*%
%TA.AperFunction,SMDPad,CuDef*%
G04:AMPARAMS|DCode=45|XSize=0.7532mm|YSize=1.4532mm|CornerRadius=0.1511mm|HoleSize=0mm|Usage=FLASHONLY|Rotation=180.000|XOffset=0mm|YOffset=0mm|HoleType=Round|Shape=RoundedRectangle|*
%AMROUNDEDRECTD45*
21,1,0.75320,1.15100,0,0,180.0*
21,1,0.45100,1.45320,0,0,180.0*
1,1,0.30220,-0.22550,0.57550*
1,1,0.30220,0.22550,0.57550*
1,1,0.30220,0.22550,-0.57550*
1,1,0.30220,-0.22550,-0.57550*
%
%ADD45ROUNDEDRECTD45*%
%ADD46R,0.70320X1.40320*%
%ADD47R,0.70320X1.80320*%
G04:AMPARAMS|DCode=48|XSize=2.0032mm|YSize=3.2032mm|CornerRadius=0mm|HoleSize=0mm|Usage=FLASHONLY|Rotation=0.000|XOffset=0mm|YOffset=0mm|HoleType=Round|Shape=Octagon|*
%AMOCTAGOND48*
4,1,8,-0.50080,1.60160,0.50080,1.60160,1.00160,1.10080,1.00160,-1.10080,0.50080,-1.60160,-0.50080,-1.60160,-1.00160,-1.10080,-1.00160,1.10080,-0.50080,1.60160,0.0*
%
%ADD48OCTAGOND48*%

%ADD49R,0.80320X1.60320*%
%ADD50R,0.80320X2.00320*%
G04:AMPARAMS|DCode=51|XSize=2.1032mm|YSize=3.4032mm|CornerRadius=0mm|HoleSize=0mm|Usage=FLASHONLY|Rotation=0.000|XOffset=0mm|YOffset=0mm|HoleType=Round|Shape=Octagon|*
%AMOCTAGOND51*
4,1,8,-0.52580,1.70160,0.52580,1.70160,1.05160,1.17580,1.05160,-1.17580,0.52580,-1.70160,-0.52580,-1.70160,-1.05160,-1.17580,-1.05160,1.17580,-0.52580,1.70160,0.0*
%
%ADD51OCTAGOND51*%

D35*
X1840000Y1730000D02*
D03*
X1690000D02*
D03*
X1830000Y2755000D02*
D03*
X1980000D02*
D03*
X630000Y650000D02*
D03*
X780000D02*
D03*
X345000D02*
D03*
X495000D02*
D03*
X440000Y1820000D02*
D03*
X290000D02*
D03*
X795000Y2755000D02*
D03*
X645000D02*
D03*
D36*
X1629500Y2062500D02*
D03*
X1756500D02*
D03*
X1883500D02*
D03*
X2010500D02*
D03*
X1629500Y2587500D02*
D03*
X1756500D02*
D03*
X1883500D02*
D03*
X2010500D02*
D03*
X1390500D02*
D03*
X1263500D02*
D03*
X1136500D02*
D03*
X1009500D02*
D03*
X1390500Y2062500D02*
D03*
X1263500D02*
D03*
X1136500D02*
D03*
X1009500D02*
D03*
X384500Y2062500D02*
D03*
X511500D02*
D03*
X638500D02*
D03*
X765500D02*
D03*
X384500Y2587500D02*
D03*
X511500D02*
D03*
X638500D02*
D03*
X765500D02*
D03*
D39*
X205000Y640000D02*
D03*
Y790000D02*
D03*
X690000D02*
D03*
Y940000D02*
D03*
X440000Y790000D02*
D03*
Y940000D02*
D03*
X910000Y1890000D02*
D03*
Y1740000D02*
D03*
X920000Y790000D02*
D03*
Y640000D02*
D03*
X1055000Y1895000D02*
D03*
Y1745000D02*
D03*
X243313Y1305000D02*
D03*
Y1455000D02*
D03*
X1600000Y1395000D02*
D03*
Y1245000D02*
D03*
X1300000Y1395000D02*
D03*
Y1245000D02*
D03*
X1970000Y1395000D02*
D03*
Y1245000D02*
D03*
X1805000Y1395000D02*
D03*
Y1245000D02*
D03*
D40*
X2215000Y190000D02*
D03*
Y2805000D02*
D03*
X190000D02*
D03*
Y190000D02*
D03*
D41*
X946000Y175000D02*
D03*
X1454000D02*
D03*
X1708000D02*
D03*
X1200000D02*
D03*
X692000D02*
D03*
X438000D02*
D03*
D42*
X1962000D02*
D03*
D43*
X885000Y1055000D02*
D03*
X1010591Y1054118D02*
D03*
X1715000Y635000D02*
D03*
X1830000Y545000D02*
D03*
X1715000Y485000D02*
D03*
X2155000Y835000D02*
D03*
X715000Y1440000D02*
D03*
X1060000Y670000D02*
D03*
X930000Y2425000D02*
D03*
X515000Y2755000D02*
D03*
X595000Y1840000D02*
D03*
X770000Y1845000D02*
D03*
X275000Y1985000D02*
D03*
X2250000Y2604999D02*
D03*
Y2475624D02*
D03*
Y2346249D02*
D03*
Y2216874D02*
D03*
Y2087500D02*
D03*
X2250984Y1958125D02*
D03*
Y1828750D02*
D03*
Y1699375D02*
D03*
Y1570000D02*
D03*
X160000Y2604999D02*
D03*
Y2475624D02*
D03*
Y2346249D02*
D03*
Y2216874D02*
D03*
Y2087500D02*
D03*
X160984Y1958125D02*
D03*
Y1828750D02*
D03*
Y1699375D02*
D03*
X160000Y1570000D02*
D03*
X1700000Y2755000D02*
D03*
X1200000Y2720000D02*
D03*
X1415000Y1925000D02*
D03*
X1825000Y1865000D02*
D03*
D45*
X379500Y1107500D02*
D03*
X506500D02*
D03*
X633500D02*
D03*
X760500D02*
D03*
X379500Y1632500D02*
D03*
X506500D02*
D03*
X633500D02*
D03*
X760500D02*
D03*
D46*
X2110000Y1025000D02*
D03*
X1810000D02*
D03*
D47*
X1960000Y1005000D02*
D03*
D48*
Y775000D02*
D03*
D49*
X1595000Y1040000D02*
D03*
X1295000D02*
D03*
D50*
X1445000Y1020000D02*
D03*
D51*
Y770000D02*
D03*
%TF.MD5,b7eaeea782e4da97c8547cd84d5208e2*%
M02*
