%TF.GenerationSoftware,Altium Limited,Altium Designer,22.10.1 (41)*%
G04 Layer_Color=255*
%FSLAX45Y45*%
%MOMM*%
%TF.SameCoordinates,31040185-1CDC-4878-9C2F-C35C27A90F04*%
%TF.FilePolarity,Positive*%
%TF.FileFunction,Pads,Bot*%
%TF.Part,Single*%
G01*
G75*
%TA.AperFunction,SMDPad,CuDef*%
%ADD10O,0.55000X1.25000*%
%ADD11R,0.80000X1.00000*%
%ADD13R,1.00000X0.80000*%
%TA.AperFunction,ViaPad*%
%ADD26C,1.52400*%
%TA.AperFunction,ComponentPad*%
%ADD27C,1.60000*%
%ADD28R,1.60000X1.60000*%
%TA.AperFunction,SMDPad,CuDef*%
%ADD30R,1.70000X1.00000*%
%ADD31O,1.25000X0.55000*%
D10*
X819500Y907500D02*
D03*
X946500D02*
D03*
X1073500D02*
D03*
X1200500D02*
D03*
X819500Y382500D02*
D03*
X946500D02*
D03*
X1073500D02*
D03*
X1200500D02*
D03*
X604500Y2622500D02*
D03*
X731500D02*
D03*
X858500D02*
D03*
X985500D02*
D03*
X604500Y2097500D02*
D03*
X731500D02*
D03*
X858500D02*
D03*
X985500D02*
D03*
X1404500Y2622500D02*
D03*
X1531500D02*
D03*
X1658500D02*
D03*
X1785500D02*
D03*
X1404500Y2097500D02*
D03*
X1531500D02*
D03*
X1658500D02*
D03*
X1785500D02*
D03*
D11*
X1575000Y440000D02*
D03*
X1425000D02*
D03*
X1700000Y1915000D02*
D03*
X1550000D02*
D03*
X1090000Y1910000D02*
D03*
X940000D02*
D03*
X940000Y1765000D02*
D03*
X1090000D02*
D03*
X1120000Y2250000D02*
D03*
X1270000D02*
D03*
X1120000Y2540000D02*
D03*
X1270000D02*
D03*
X1550000Y1760000D02*
D03*
X1700000D02*
D03*
X1245000D02*
D03*
X1395000D02*
D03*
D13*
X1955000Y2295000D02*
D03*
Y2445000D02*
D03*
X440000Y2270000D02*
D03*
Y2420000D02*
D03*
X1430000Y605000D02*
D03*
Y755000D02*
D03*
X1580000Y605000D02*
D03*
Y755000D02*
D03*
X2070000Y1450000D02*
D03*
Y1600000D02*
D03*
D26*
X2215000Y190000D02*
D03*
Y2805000D02*
D03*
X190000D02*
D03*
Y190000D02*
D03*
D27*
X946000Y175000D02*
D03*
X1454000D02*
D03*
X1708000D02*
D03*
X1200000D02*
D03*
X692000D02*
D03*
X438000D02*
D03*
D28*
X1962000D02*
D03*
D30*
X285000Y780000D02*
D03*
Y590000D02*
D03*
X280000Y1390000D02*
D03*
Y1200000D02*
D03*
D31*
X1022500Y1560500D02*
D03*
Y1433500D02*
D03*
Y1306500D02*
D03*
Y1179500D02*
D03*
X497500Y1560500D02*
D03*
Y1433500D02*
D03*
Y1306500D02*
D03*
Y1179500D02*
D03*
X1902500Y1560500D02*
D03*
Y1433500D02*
D03*
Y1306500D02*
D03*
Y1179500D02*
D03*
X1377500Y1560500D02*
D03*
Y1433500D02*
D03*
Y1306500D02*
D03*
Y1179500D02*
D03*
%TF.MD5,a86234c40ed6bf923904603651e07a19*%
M02*
