%TF.GenerationSoftware,Altium Limited,Altium Designer,22.10.1 (41)*%
G04 Layer_Color=16711935*
%FSLAX45Y45*%
%MOMM*%
%TF.SameCoordinates,31040185-1CDC-4878-9C2F-C35C27A90F04*%
%TF.FilePolarity,Negative*%
%TF.FileFunction,Soldermask,Bot*%
%TF.Part,Single*%
G01*
G75*
%TA.AperFunction,SMDPad,CuDef*%
%ADD35R,1.00320X1.20320*%
%ADD36O,0.75320X1.45320*%
%ADD37R,1.90320X1.20320*%
%ADD38O,1.45320X0.75320*%
%ADD39R,1.20320X1.00320*%
%TA.AperFunction,ViaPad*%
%ADD40C,1.72720*%
%TA.AperFunction,ComponentPad*%
%ADD41C,1.80320*%
%ADD42R,1.80320X1.80320*%
%TA.AperFunction,ViaPad*%
%ADD43C,0.90320*%
D35*
X1575000Y440000D02*
D03*
X1425000D02*
D03*
X1700000Y1915000D02*
D03*
X1550000D02*
D03*
X1090000Y1910000D02*
D03*
X940000D02*
D03*
X940000Y1765000D02*
D03*
X1090000D02*
D03*
X1120000Y2250000D02*
D03*
X1270000D02*
D03*
X1120000Y2540000D02*
D03*
X1270000D02*
D03*
X1550000Y1760000D02*
D03*
X1700000D02*
D03*
X1245000D02*
D03*
X1395000D02*
D03*
D36*
X819500Y907500D02*
D03*
X946500D02*
D03*
X1073500D02*
D03*
X1200500D02*
D03*
X819500Y382500D02*
D03*
X946500D02*
D03*
X1073500D02*
D03*
X1200500D02*
D03*
X604500Y2622500D02*
D03*
X731500D02*
D03*
X858500D02*
D03*
X985500D02*
D03*
X604500Y2097500D02*
D03*
X731500D02*
D03*
X858500D02*
D03*
X985500D02*
D03*
X1404500Y2622500D02*
D03*
X1531500D02*
D03*
X1658500D02*
D03*
X1785500D02*
D03*
X1404500Y2097500D02*
D03*
X1531500D02*
D03*
X1658500D02*
D03*
X1785500D02*
D03*
D37*
X285000Y780000D02*
D03*
Y590000D02*
D03*
X280000Y1390000D02*
D03*
Y1200000D02*
D03*
D38*
X1022500Y1560500D02*
D03*
Y1433500D02*
D03*
Y1306500D02*
D03*
Y1179500D02*
D03*
X497500Y1560500D02*
D03*
Y1433500D02*
D03*
Y1306500D02*
D03*
Y1179500D02*
D03*
X1902500Y1560500D02*
D03*
Y1433500D02*
D03*
Y1306500D02*
D03*
Y1179500D02*
D03*
X1377500Y1560500D02*
D03*
Y1433500D02*
D03*
Y1306500D02*
D03*
Y1179500D02*
D03*
D39*
X1955000Y2295000D02*
D03*
Y2445000D02*
D03*
X440000Y2270000D02*
D03*
Y2420000D02*
D03*
X1430000Y605000D02*
D03*
Y755000D02*
D03*
X1580000Y605000D02*
D03*
Y755000D02*
D03*
X2070000Y1450000D02*
D03*
Y1600000D02*
D03*
D40*
X2215000Y190000D02*
D03*
Y2805000D02*
D03*
X190000D02*
D03*
Y190000D02*
D03*
D41*
X946000Y175000D02*
D03*
X1454000D02*
D03*
X1708000D02*
D03*
X1200000D02*
D03*
X692000D02*
D03*
X438000D02*
D03*
D42*
X1962000D02*
D03*
D43*
X885000Y1055000D02*
D03*
X1010591Y1054118D02*
D03*
X1715000Y635000D02*
D03*
X1830000Y545000D02*
D03*
X1715000Y485000D02*
D03*
X2155000Y835000D02*
D03*
X715000Y1440000D02*
D03*
X1060000Y670000D02*
D03*
X930000Y2425000D02*
D03*
X515000Y2755000D02*
D03*
X595000Y1840000D02*
D03*
X770000Y1845000D02*
D03*
X275000Y1985000D02*
D03*
X2250000Y2604999D02*
D03*
Y2475624D02*
D03*
Y2346249D02*
D03*
Y2216874D02*
D03*
Y2087500D02*
D03*
X2250984Y1958125D02*
D03*
Y1828750D02*
D03*
Y1699375D02*
D03*
Y1570000D02*
D03*
X160000Y2604999D02*
D03*
Y2475624D02*
D03*
Y2346249D02*
D03*
Y2216874D02*
D03*
Y2087500D02*
D03*
X160984Y1958125D02*
D03*
Y1828750D02*
D03*
Y1699375D02*
D03*
X160000Y1570000D02*
D03*
X1700000Y2755000D02*
D03*
X1200000Y2720000D02*
D03*
X1415000Y1925000D02*
D03*
X1825000Y1865000D02*
D03*
%TF.MD5,0ab2fac5b36a688e7ca9a8781465ff08*%
M02*
