%TF.GenerationSoftware,Altium Limited,Altium Designer,22.10.1 (41)*%
G04 Layer_Color=32896*
%FSLAX45Y45*%
%MOMM*%
%TF.SameCoordinates,31040185-1CDC-4878-9C2F-C35C27A90F04*%
%TF.FilePolarity,Positive*%
%TF.FileFunction,Legend,Bot*%
%TF.Part,Single*%
G01*
G75*
%TA.AperFunction,NonConductor*%
%ADD32C,0.25000*%
%ADD33C,0.60000*%
%ADD34C,0.20000*%
D32*
X749500Y907500D02*
G03*
X749500Y907500I-12500J0D01*
G01*
X1035000Y1643000D02*
G03*
X1035000Y1643000I-12500J0D01*
G01*
X1915000D02*
G03*
X1915000Y1643000I-12500J0D01*
G01*
X1080500Y2097500D02*
G03*
X1080500Y2097500I-12500J0D01*
G01*
X1880500D02*
G03*
X1880500Y2097500I-12500J0D01*
G01*
D33*
X890000Y705000D02*
G03*
X890000Y705000I-30000J0D01*
G01*
X850000Y1520000D02*
G03*
X850000Y1520000I-30000J0D01*
G01*
X1730000D02*
G03*
X1730000Y1520000I-30000J0D01*
G01*
X975000Y2300000D02*
G03*
X975000Y2300000I-30000J0D01*
G01*
X1775000D02*
G03*
X1775000Y2300000I-30000J0D01*
G01*
D34*
X760000Y805000D02*
X1260000D01*
X760000Y485000D02*
X1260000D01*
X760000D02*
Y805000D01*
X1260000Y485000D02*
Y805000D01*
X920000Y1120000D02*
Y1620000D01*
X600000Y1120000D02*
Y1620000D01*
X920000D01*
X600000Y1120000D02*
X920000D01*
X1800000D02*
Y1620000D01*
X1480000Y1120000D02*
Y1620000D01*
X1800000D01*
X1480000Y1120000D02*
X1800000D01*
X545000Y2200000D02*
Y2520000D01*
X1045000Y2200000D02*
Y2520000D01*
X545000D02*
X1045000D01*
X545000Y2200000D02*
X1045000D01*
X1345000D02*
Y2520000D01*
X1845000Y2200000D02*
Y2520000D01*
X1345000D02*
X1845000D01*
X1345000Y2200000D02*
X1845000D01*
%TF.MD5,818f7e617a4b579c813bab08b7eceddb*%
M02*
